<?xml version="1.0" standalone="no"?>
<!DOCTYPE svg PUBLIC "-//W3C//DTD SVG 20010904//EN"
 "http://www.w3.org/TR/2001/REC-SVG-20010904/DTD/svg10.dtd">
<svg version="1.0" xmlns="http://www.w3.org/2000/svg"
 width="301.000000pt" height="301.000000pt" viewBox="0 0 301.000000 301.000000"
 preserveAspectRatio="xMidYMid meet">
<metadata>
Created by potrace 1.11, written by Peter Selinger 2001-2013
</metadata>
<g transform="translate(0.000000,301.000000) scale(0.100000,-0.100000)"
fill="#000000" stroke="none">
<path d="M2547 3004 c-1 -1 -54 -5 -117 -8 -63 -3 -128 -8 -145 -11 -16 -2
-57 -7 -90 -10 -33 -3 -71 -7 -85 -9 -14 -3 -43 -7 -65 -10 -22 -3 -51 -8 -65
-10 -14 -3 -42 -7 -63 -10 -140 -21 -455 -105 -552 -147 -11 -5 -45 -18 -75
-29 -352 -136 -640 -391 -772 -685 -131 -292 -138 -628 -18 -925 32 -82 68
-146 128 -232 30 -42 54 -80 53 -85 -1 -4 -152 -159 -336 -344 -184 -184 -336
-341 -336 -347 -6 -54 1 -79 27 -106 20 -20 37 -26 68 -26 40 0 45 5 383 342
321 321 343 341 360 326 38 -34 161 -111 228 -143 326 -156 719 -154 1040 8
161 81 348 245 452 397 173 255 315 647 373 1035 7 44 13 87 15 95 5 25 16
112 19 155 23 249 27 317 28 512 0 121 -4 192 -11 212 -21 48 -48 54 -254 56
-103 1 -188 0 -190 -1z"/>
</g>
</svg>
